<svg width="227" height="151" viewBox="0 0 227 151" fill="none" xmlns="http://www.w3.org/2000/svg">
    <g clip-path="url(#clip0_110_241)">
        <g clip-path="url(#clip1_110_241)">
            <g clip-path="url(#clip2_110_241)">
                <g clip-path="url(#clip3_110_241)">
                    <g clip-path="url(#clip4_110_241)">
                        <g clip-path="url(#clip5_110_241)">
                            <g clip-path="url(#clip6_110_241)">
                                <g clip-path="url(#clip7_110_241)">
                                    <g clip-path="url(#clip8_110_241)">
                                        <g clip-path="url(#clip9_110_241)">
                                            <path
                                                d="M43.3992 79.9956V78.6301C43.3992 75.6714 43.866 73.4638 44.7996 72.0072C45.7375 70.5552 47.1016 69.8292 48.8921 69.8292C50.1923 69.8292 51.2752 70.4277 52.1406 71.6249V62.5918H56.5912V88.1957H52.5754L52.3772 86.3591C51.4691 87.8065 50.3032 88.5303 48.8793 88.5303C47.1102 88.5303 45.7588 87.8065 44.8252 86.3591C43.8958 84.9161 43.4205 82.795 43.3992 79.9956ZM47.8306 78.5618V79.8113C47.8306 81.5911 48.0075 82.8337 48.3614 83.5392C48.7152 84.2448 49.3142 84.5975 50.1582 84.5975C51.0322 84.5975 51.6929 84.181 52.1406 83.348V75.107C51.7015 74.2194 51.045 73.7756 50.171 73.7756C49.3611 73.7756 48.7685 74.1261 48.3933 74.8271C48.0182 75.528 47.8306 76.773 47.8306 78.5618ZM67.3149 83.3617C67.3149 82.9611 67.1337 82.5924 66.7714 82.2556C66.4133 81.9142 65.6161 81.4545 64.3798 80.8764C62.5552 80.089 61.304 79.2719 60.6262 78.4253C59.9441 77.5832 59.603 76.534 59.603 75.2777C59.603 73.6982 60.1359 72.3941 61.2017 71.3654C62.2675 70.3413 63.6807 69.8292 65.4413 69.8292C67.2915 69.8292 68.775 70.339 69.8919 71.3586C71.0046 72.3827 71.5609 73.7551 71.5609 75.4757H67.1423C67.1423 74.01 66.5689 73.2772 65.4221 73.2772C64.9532 73.2772 64.5695 73.4319 64.2711 73.7415C63.9684 74.0555 63.8171 74.4902 63.8171 75.0455C63.8171 75.4461 63.9833 75.7989 64.3159 76.1038C64.6484 76.4088 65.4349 76.8435 66.6755 77.4079C68.4745 78.1226 69.747 78.9146 70.493 79.784C71.2348 80.6579 71.6057 81.7891 71.6057 83.1774C71.6057 84.7887 71.0387 86.0837 69.9047 87.0623C68.7707 88.041 67.2829 88.5303 65.4413 88.5303C64.2008 88.5303 63.1073 88.2708 62.1609 87.7519C61.2145 87.2376 60.4727 86.5184 59.9356 85.5944C59.3984 84.6749 59.1298 83.6803 59.1298 82.6107H63.3311C63.3524 83.4345 63.5314 84.0513 63.8682 84.461C64.2093 84.8706 64.7635 85.0755 65.5308 85.0755C66.7202 85.0755 67.3149 84.5042 67.3149 83.3617ZM86.8248 88.1957H82.3742C82.2505 87.9181 82.1269 87.4515 82.0033 86.796C81.2103 87.9522 80.1382 88.5303 78.7868 88.5303C77.3715 88.5303 76.197 88.0296 75.2634 87.0282C74.334 86.0268 73.8694 84.7318 73.8694 83.1432C73.8694 81.2542 74.4342 79.7931 75.5639 78.7598C76.6936 77.7266 78.32 77.1986 80.443 77.1758H81.7859V75.7283C81.7859 74.9181 81.6558 74.3446 81.3958 74.0077C81.1357 73.6755 80.7542 73.5093 80.2512 73.5093C79.1513 73.5093 78.6014 74.1989 78.6014 75.5781H74.1827C74.1827 73.9121 74.7667 72.5375 75.9348 71.4542C77.1072 70.3708 78.5886 69.8292 80.379 69.8292C82.2292 69.8292 83.6616 70.3413 84.6762 71.3654C85.6951 72.3941 86.2045 73.8644 86.2045 75.7761V84.263C86.2216 85.8197 86.4283 87.035 86.8248 87.909V88.1957ZM79.7716 84.8297C80.2576 84.8297 80.6732 84.7227 81.0185 84.5088C81.3638 84.2994 81.6196 84.0513 81.7859 83.7645V80.0093H80.7244C79.9741 80.0093 79.3815 80.2665 78.9467 80.7808C78.5161 81.2906 78.3008 81.9734 78.3008 82.8291C78.3008 84.1628 78.7911 84.8297 79.7716 84.8297ZM94.0379 70.1569V88.1957H89.6064V70.1569H94.0379ZM89.4018 65.4936C89.4018 64.7607 89.6192 64.1599 90.0541 63.6911C90.4932 63.2268 91.0772 62.9946 91.8062 62.9946C92.5352 62.9946 93.1171 63.2268 93.5519 63.6911C93.991 64.1599 94.2105 64.7607 94.2105 65.4936C94.2105 66.2128 93.9931 66.8113 93.5583 67.2893C93.1277 67.7672 92.5437 68.0062 91.8062 68.0062C91.0644 68.0062 90.4782 67.7672 90.0477 67.2893C89.6171 66.8113 89.4018 66.2128 89.4018 65.4936ZM97.3439 70.1569H101.5L101.622 71.9458C102.624 70.5347 103.93 69.8292 105.542 69.8292C108.445 69.8292 109.939 72.0004 110.024 76.3428V88.1957H105.586V76.691C105.586 75.6714 105.444 74.9318 105.158 74.472C104.872 74.0077 104.372 73.7756 103.655 73.7756C102.854 73.7756 102.229 74.2148 101.782 75.0933V88.1957H97.3439V70.1569ZM113.906 65.7257H118.325V70.1569H120.588V73.7073H118.325V82.6584C118.325 83.3731 118.416 83.8624 118.599 84.1264C118.783 84.395 119.134 84.5292 119.655 84.5292C120.081 84.5292 120.428 84.4906 120.697 84.4132L120.665 88.0797C119.919 88.3801 119.109 88.5303 118.235 88.5303C115.383 88.5303 113.94 86.7847 113.906 83.2934V73.7073H111.956V70.1569H113.906V65.7257ZM130.487 83.3617C130.487 82.9611 130.308 82.5924 129.95 82.2556C129.588 81.9142 128.788 81.4545 127.552 80.8764C125.732 80.089 124.48 79.2719 123.798 78.4253C123.116 77.5832 122.775 76.534 122.775 75.2777C122.775 73.6982 123.308 72.3941 124.374 71.3654C125.44 70.3413 126.853 69.8292 128.613 69.8292C130.464 69.8292 131.947 70.339 133.064 71.3586C134.177 72.3827 134.733 73.7551 134.733 75.4757H130.314C130.314 74.01 129.741 73.2772 128.594 73.2772C128.13 73.2772 127.746 73.4319 127.443 73.7415C127.141 74.0555 126.989 74.4902 126.989 75.0455C126.989 75.4461 127.155 75.7989 127.488 76.1038C127.82 76.4088 128.607 76.8435 129.848 77.4079C131.647 78.1226 132.919 78.9146 133.665 79.784C134.407 80.6579 134.778 81.7891 134.778 83.1774C134.778 84.7887 134.211 86.0837 133.077 87.0623C131.943 88.041 130.455 88.5303 128.613 88.5303C127.373 88.5303 126.279 88.2708 125.333 87.7519C124.387 87.2376 123.645 86.5184 123.108 85.5944C122.575 84.6749 122.308 83.6803 122.308 82.6107H126.503C126.524 83.4345 126.704 84.0513 127.04 84.461C127.381 84.8706 127.936 85.0755 128.703 85.0755C129.892 85.0755 130.487 84.5042 130.487 83.3617ZM150.796 84.2766V88.1957H137.4V84.8638L143.551 76.5135C144.331 75.3573 144.907 74.3423 145.278 73.4683C145.644 72.5944 145.828 71.7591 145.828 70.9626C145.828 69.8838 145.655 69.0372 145.31 68.4227C144.96 67.8127 144.457 67.5078 143.801 67.5078C143.084 67.5078 142.515 67.8628 142.093 68.5729C141.671 69.2875 141.46 70.2889 141.46 71.5771H137.022C137.022 70.0886 137.312 68.7276 137.892 67.4941C138.467 66.2606 139.28 65.3024 140.328 64.6196C141.373 63.9323 142.556 63.5886 143.877 63.5886C145.906 63.5886 147.482 64.1872 148.603 65.3843C149.72 66.5769 150.278 68.2747 150.278 70.4778C150.278 71.8433 149.969 73.2294 149.351 74.6359C148.733 76.0424 147.612 77.7721 145.987 79.8249L143.065 84.2766H150.796ZM157.504 77.7084V73.9121H159.646C160.456 73.9121 161.051 73.6095 161.43 73.0041C161.81 72.3987 162 71.5884 162 70.5734C162 69.6084 161.806 68.8574 161.418 68.3202C161.025 67.7786 160.503 67.5078 159.851 67.5078C159.237 67.5078 158.734 67.7649 158.342 68.2793C157.95 68.7891 157.754 69.4332 157.754 70.2115H153.341C153.341 68.9416 153.614 67.8036 154.16 66.7977C154.705 65.7963 155.471 65.0111 156.455 64.4421C157.436 63.8731 158.525 63.5886 159.723 63.5886C161.816 63.5886 163.455 64.2054 164.64 65.439C165.826 66.6725 166.418 68.3635 166.418 70.5119C166.418 71.6089 166.152 72.6285 165.619 73.5708C165.082 74.5084 164.376 75.2276 163.502 75.7283C164.572 76.2154 165.372 76.9482 165.9 77.9268C166.425 78.9055 166.687 80.0616 166.687 81.3953C166.687 83.5529 166.043 85.2803 164.756 86.5776C163.472 87.8794 161.784 88.5303 159.691 88.5303C157.747 88.5303 156.168 87.8885 154.953 86.6049C153.742 85.3213 153.137 83.6348 153.137 81.5455H157.555C157.555 82.4104 157.768 83.1387 158.195 83.7304C158.621 84.3176 159.162 84.6112 159.819 84.6112C160.578 84.6112 161.179 84.3108 161.622 83.7099C162.061 83.1091 162.281 82.3102 162.281 81.3134C162.281 78.9237 161.413 77.722 159.678 77.7084H157.504ZM181.388 63.9232V79.0261H183.325V82.9452H181.388V88.1957H176.976V82.9452H169.449L169.245 79.8932L176.956 63.9232H181.388ZM176.88 71.0923L173.535 79.0261H176.976V70.908L176.88 71.0923Z"
                                                fill="url(#paint0_linear_110_241)" />
                                        </g>
                                    </g>
                                </g>
                            </g>
                        </g>
                    </g>
                </g>
                <path
                    d="M120.42 58.9236V21.0874H222.456V130.035H120.42V92.1986H122.61V127.696H220.265V23.4264H122.61V58.9236H120.42Z"
                    fill="url(#paint1_linear_110_241)" />
            </g>
        </g>
    </g>
    <defs>
        <linearGradient id="paint0_linear_110_241" x1="113.362" y1="62.5918" x2="113.362" y2="88.5303"
            gradientUnits="userSpaceOnUse">
            <stop stop-color="#023C40" />
            <stop offset="1" stop-color="#009FB7" />
        </linearGradient>
        <linearGradient id="paint1_linear_110_241" x1="171.438" y1="21.0874" x2="171.438" y2="130.035"
            gradientUnits="userSpaceOnUse">
            <stop stop-color="#023C40" />
            <stop offset="1" stop-color="#009FB7" />
        </linearGradient>
        <clipPath id="clip0_110_241">
            <rect width="227" height="151" fill="white" />
        </clipPath>
        <clipPath id="clip1_110_241">
            <rect width="227" height="151" fill="white" transform="translate(-0.137573 0.0610352)" />
        </clipPath>
        <clipPath id="clip2_110_241">
            <rect width="226.457" height="151.122" fill="white" transform="translate(0.134033)" />
        </clipPath>
        <clipPath id="clip3_110_241">
            <rect width="139.95" height="25.9385" fill="white" transform="translate(43.3873 62.5918)" />
        </clipPath>
        <clipPath id="clip4_110_241">
            <rect width="139.95" height="25.9385" fill="white" transform="translate(43.3873 62.5918)" />
        </clipPath>
        <clipPath id="clip5_110_241">
            <rect width="139.95" height="25.9385" fill="white" transform="translate(43.3873 62.5918)" />
        </clipPath>
        <clipPath id="clip6_110_241">
            <rect width="139.95" height="25.9385" fill="white" transform="translate(43.3873 62.5918)" />
        </clipPath>
        <clipPath id="clip7_110_241">
            <rect width="139.95" height="25.9385" fill="white" transform="translate(43.3873 62.5918)" />
        </clipPath>
        <clipPath id="clip8_110_241">
            <rect width="139.95" height="25.9385" fill="white" transform="translate(43.3873 62.5918)" />
        </clipPath>
        <clipPath id="clip9_110_241">
            <rect width="139.95" height="25.9385" fill="white" transform="translate(43.3873 62.5918)" />
        </clipPath>
    </defs>
</svg>