<svg width="105" height="105" viewBox="0 0 105 105" fill="none" xmlns="http://www.w3.org/2000/svg">
<g clip-path="url(#clip0_412_262)">
<path d="M45.9386 36.0938C36.8771 36.0938 29.5313 43.4395 29.5313 52.5011C29.5313 61.5626 36.8771 68.9082 45.9386 68.9082C50.6117 68.9082 54.8218 66.9611 57.8162 63.8203C59.6919 61.8529 62.8074 61.7785 64.7748 63.6542C66.7426 65.5298 66.8168 68.6451 64.941 70.6125C60.1661 75.621 53.4139 78.752 45.9386 78.752C31.4405 78.752 19.6875 66.9992 19.6875 52.5011C19.6875 38.003 31.4405 26.25 45.9386 26.25C53.3823 26.25 60.1094 29.3547 64.8807 34.3264C66.7629 36.2876 66.6986 39.4034 64.7376 41.2855C62.7763 43.1677 59.6606 43.1036 57.7784 41.1423C54.7864 38.0247 50.5922 36.0938 45.9386 36.0938Z" fill="black"/>
<path d="M43.2231 0.670464C44.7556 -0.223488 46.6506 -0.223488 48.1831 0.670464L79.1208 18.7174C81.4688 20.087 82.2616 23.1007 80.892 25.4487C79.5224 27.7967 76.5089 28.5898 74.1608 27.2201L45.7032 10.62L9.84375 31.5379V73.4619L45.7032 94.3799L74.1608 77.7801C76.5089 76.4105 79.5224 77.2032 80.892 79.5513C82.2616 81.8993 81.4688 84.9128 79.1208 86.2824L48.1831 104.329C46.6506 105.224 44.7556 105.224 43.2231 104.329L2.44189 80.5403C0.929795 79.6583 0 78.0399 0 76.2891V28.7109C0 26.9604 0.929795 25.3416 2.44189 24.4596L43.2231 0.670464Z" fill="black"/>
<path d="M79.9307 34.4531C81.7426 34.4531 83.2119 35.9222 83.2119 37.7344V67.2656C83.2119 69.0775 81.7426 70.5469 79.9307 70.5469C78.1188 70.5469 76.6494 69.0775 76.6494 67.2656V37.7344C76.6494 35.9222 78.1188 34.4531 79.9307 34.4531Z" fill="black"/>
<path d="M93.9756 34.4531C95.7875 34.4531 97.2568 35.9222 97.2568 37.7344V67.2656C97.2568 69.0775 95.7875 70.5469 93.9756 70.5469C92.1637 70.5469 90.6943 69.0775 90.6943 67.2656V37.7344C90.6943 35.9222 92.1637 34.4531 93.9756 34.4531Z" fill="black"/>
<path d="M68.9062 45.4778C68.9062 43.6656 70.3756 42.1965 72.1875 42.1965H101.719C103.531 42.1965 105 43.6656 105 45.4778C105 47.29 103.531 48.759 101.719 48.759H72.1875C70.3756 48.759 68.9062 47.29 68.9062 45.4778Z" fill="black"/>
<path d="M68.9062 59.5225C68.9062 57.7103 70.3756 56.2412 72.1875 56.2412H101.719C103.531 56.2412 105 57.7103 105 59.5225C105 61.3346 103.531 62.8037 101.719 62.8037H72.1875C70.3756 62.8037 68.9062 61.3346 68.9062 59.5225Z" fill="black"/>
</g>
<defs>
<clipPath id="clip0_412_262">
<rect width="105" height="105" fill="white"/>
</clipPath>
</defs>
</svg>
