<svg width="105" height="105" viewBox="0 0 105 105" fill="none" xmlns="http://www.w3.org/2000/svg">
<g clip-path="url(#clip0_21_131)">
<g clip-path="url(#clip1_21_131)">
<path d="M52.5 105C81.4949 105 105 81.4949 105 52.5C105 23.505 81.4949 0 52.5 0C23.505 0 0 23.505 0 52.5C0 81.4949 23.505 105 52.5 105Z" fill="#5C2D91"/>
<path opacity="0.1" d="M16.1109 14.7656C10.7739 19.5215 6.46432 25.3172 3.44642 31.7975C0.428519 38.2778 -1.23416 45.3061 -1.43972 52.4518C-1.64527 59.5974 -0.389357 66.7097 2.25104 73.3527C4.89143 79.9958 8.86067 86.0297 13.9155 91.0845C18.9703 96.1393 25.0041 100.109 31.6472 102.749C38.2903 105.389 45.4026 106.645 52.5482 106.44C59.6938 106.234 66.7221 104.571 73.2024 101.554C79.6827 98.5356 85.4784 94.2261 90.2343 88.8891L16.1109 14.7656Z" fill="white"/>
<path d="M12.1406 67.6757C11.8344 67.6805 11.5305 67.6218 11.2481 67.5032C10.9657 67.3846 10.711 67.2087 10.5 66.9866C10.2833 66.7725 10.112 66.5168 9.99638 66.2349C9.8808 65.953 9.82331 65.6507 9.82735 65.346C9.82516 65.0416 9.8835 64.7398 9.99898 64.4582C10.1145 64.1765 10.2848 63.9206 10.5 63.7054C10.7089 63.4796 10.9628 63.3001 11.2455 63.1786C11.5281 63.057 11.833 62.9962 12.1406 62.9999C12.4478 62.9992 12.7518 63.0614 13.034 63.1827C13.3162 63.304 13.5705 63.4819 13.7813 63.7054C14.0002 63.9187 14.174 64.1739 14.2924 64.4557C14.4108 64.7376 14.4713 65.0403 14.4703 65.346C14.4732 65.652 14.4135 65.9553 14.2951 66.2374C14.1766 66.5195 14.0017 66.7745 13.7813 66.9866C13.5685 67.2063 13.3134 67.3807 13.0315 67.4991C12.7495 67.6175 12.4465 67.6776 12.1406 67.6757Z" fill="white"/>
<path d="M44.7399 67.2655H40.4415L25.0688 43.4108C24.6865 42.8227 24.3676 42.1958 24.1172 41.5405H23.986C24.1321 42.9025 24.1869 44.2728 24.15 45.6421V67.2655H20.6555V37.3569H25.2L40.1625 60.7851C40.786 61.7585 41.1907 62.4257 41.3766 62.7866H41.4586C41.2856 61.3277 41.2143 59.8585 41.2454 58.3897V37.3569H44.7399V67.2655Z" fill="white"/>
<path d="M68.3977 67.2655H52.5V37.3569H67.6594V40.5233H56.0766V50.4655H66.8719V53.6155H56.0766V63.9843H68.4141L68.3977 67.2655Z" fill="white"/>
<path d="M91.8751 40.5233H83.1798V67.2655H79.6853V40.5233H71.0884V37.3569H91.8751V40.5233Z" fill="white"/>
</g>
</g>
<defs>
<clipPath id="clip0_21_131">
<rect width="105" height="105" fill="white"/>
</clipPath>
<clipPath id="clip1_21_131">
<rect width="105" height="105" fill="white"/>
</clipPath>
</defs>
</svg>
