<svg width="105" height="105" viewBox="0 0 105 105" fill="none" xmlns="http://www.w3.org/2000/svg">
<g clip-path="url(#clip0_21_137)">
<path d="M0 105.398C0 114.016 7.04312 121 15.7309 121H106.269C114.958 121 122 114.015 122 105.398V15.6024C122 6.98444 114.957 0 106.269 0H15.7313C7.04216 0 0 6.98539 0 15.6019V105.398V105.398Z" fill="#563D7C"/>
<path d="M50.5911 53.5227V36.3874H65.7987C67.2474 36.3874 68.6437 36.507 69.9886 36.7467C71.3334 36.9858 72.5234 37.4131 73.558 38.029C74.5922 38.6448 75.42 39.4999 76.0409 40.5941C76.6614 41.6888 76.9721 43.0911 76.9721 44.8007C76.9721 47.8791 76.0409 50.1025 74.1785 51.4704C72.3166 52.8387 69.9371 53.5227 67.0401 53.5227H50.5911V53.5227ZM34.3484 23.8691V97.1309H70.144C73.4546 97.1309 76.6791 96.7206 79.8172 95.8996C82.9554 95.0786 85.7485 93.8133 88.1971 92.1032C90.6452 90.3932 92.5939 88.1868 94.0421 85.4851C95.4909 82.7829 96.2148 79.5849 96.2148 75.8911C96.2148 71.3078 95.0939 67.3918 92.8526 64.1428C90.6109 60.8933 87.2139 58.6188 82.6618 57.319C85.9725 55.746 88.473 53.7278 90.1629 51.2652C91.8523 48.8027 92.6973 45.7248 92.6973 42.0305C92.6973 38.6103 92.1283 35.7375 90.9902 33.4116C89.8522 31.0861 88.2486 29.222 86.1793 27.8196C84.1106 26.4172 81.6277 25.4081 78.7307 24.7927C75.8341 24.1768 72.6268 23.8691 69.1093 23.8691H34.3484V23.8691ZM50.5911 84.6126V64.5015H68.2815C71.7991 64.5015 74.627 65.305 76.7653 66.913C78.9032 68.5205 79.9726 71.2052 79.9726 74.9675C79.9726 76.8832 79.6447 78.4562 78.9894 79.6875C78.3342 80.9188 77.4549 81.8938 76.3512 82.6118C75.2479 83.3302 73.9717 83.8431 72.5234 84.1513C71.0747 84.4585 69.5578 84.6126 67.9713 84.6126H50.5911V84.6126Z" fill="white"/>
</g>
<defs>
<clipPath id="clip0_21_137">
<rect width="105" height="105" fill="white"/>
</clipPath>
</defs>
</svg>
