<svg width="105" height="105" viewBox="0 0 105 105" fill="none" xmlns="http://www.w3.org/2000/svg">
<g clip-path="url(#clip0_412_248)">
<path d="M105 96.9583V8.04175C105 4.39411 102.571 1.31564 99.2424 0.331055L95.4628 2.59258L53.5184 47.3148L52.2034 51.4251L51.4351 55.3704L64.5148 104.253L66.5385 105H96.9582C101.399 105 105 101.4 105 96.9583Z" fill="#EA6618"/>
<path d="M0 8.04167V96.9582C0 99.7079 1.38083 102.134 3.48597 103.584L6.06514 102.349L50.4629 54.8147L52.2035 51.425L52.2685 48.1481L40.1851 2.17583L38.3554 0H8.04167C3.60042 0 0 3.60042 0 8.04167Z" fill="#D65813"/>
<path d="M52.2034 51.425L99.2424 0.331111C98.5181 0.116806 97.752 0 96.9582 0H38.3555L52.2034 51.425Z" fill="#E05E11"/>
<path d="M8.04178 105H66.5387L52.2034 51.425L3.48608 103.584C4.78122 104.477 6.35011 105 8.04178 105Z" fill="#DE5C16"/>
<path d="M38.9313 39.7971H44.7659C47.0905 48.5689 49.7363 56.2661 52.6882 63.2111C56.0318 55.3974 58.4826 47.695 60.5572 39.7971H66.0704C63.6012 49.6106 59.5622 59.501 54.9422 69.7097H50.0655C45.6277 60.0356 41.8497 50.0892 38.9313 39.7971ZM19.6869 24.5989H32.6603V80.2314H19.6296V75.9429H27.6158V28.773H19.6869V24.5989ZM85.381 28.7731H77.4519V75.9429H85.438V80.2314H72.4075V24.5989H85.381V28.7731Z" fill="white"/>
</g>
<defs>
<clipPath id="clip0_412_248">
<rect width="105" height="105" fill="white"/>
</clipPath>
</defs>
</svg>
