<svg width="120" height="110" viewBox="0 0 120 110" fill="none" xmlns="http://www.w3.org/2000/svg">
<path d="M116.119 50.354C115.791 50.3216 115.411 50.3 115.027 50.3C113.09 50.3 111.237 50.7861 109.533 51.6719L109.637 51.6233C109.137 51.8934 108.336 51.8934 108.268 52.7522C108.545 53.1087 108.585 53.6974 108.817 54.1943C109.285 55.2638 109.861 56.1712 110.533 56.9273L110.545 56.9435C111.245 57.6835 111.946 58.4019 112.682 59.0338C113.982 60.1141 115.459 60.7568 116.731 61.8425C117.455 62.4744 118.195 63.2792 118.932 63.9544C119.296 64.2892 119.532 64.8996 120 65.1156V64.9806C119.772 64.5755 119.7 63.9868 119.476 63.5385C119.14 63.0848 118.808 62.6797 118.476 62.2368C117.483 60.4814 116.335 58.9798 115.047 57.7267L114.998 57.6835C113.93 56.7005 111.589 55.3232 111.149 53.665L111.085 53.5678C111.958 53.4003 112.734 53.1519 113.482 52.817L113.386 52.8548C114.522 52.4497 115.563 52.5361 116.735 52.1418C117.263 51.9582 117.799 51.7367 118.335 51.5099V51.1048C117.735 50.2946 117.287 49.1928 116.667 48.4366C115.031 46.4921 113.226 44.6665 111.325 43.0245L111.145 42.8787C110.097 41.9767 108.765 41.3934 107.66 40.6264C107.26 40.3563 106.592 40.2213 106.36 39.7676C105.84 38.7683 105.38 37.6233 105.016 36.4134L104.983 36.2946C104.002 33.7236 103.09 31.1076 102.247 28.4466C101.671 26.3779 101.098 24.6819 100.454 23.0399L100.546 23.2938C97.4012 16.1695 93.0199 10.4442 87.7903 6.5391L87.6183 6.42027C86.3819 5.59388 84.9455 4.95113 83.437 4.58925L83.337 4.56765C82.5008 4.51363 81.6685 4.43261 80.8363 4.384C80.2521 3.87628 79.7479 3.35776 79.2758 2.78523L79.2878 2.80144C77.3872 1.18106 72.4697 -2.32975 71.0693 2.31532C70.1691 5.2428 72.4057 8.13247 73.178 9.61781C73.7941 10.6062 74.3543 11.7135 74.8385 12.8856L74.8785 12.9936C75.1145 13.7768 75.1786 14.5816 75.4146 15.3971C75.9948 17.8385 76.583 19.8424 77.2512 21.7814L77.1471 21.4465C77.5433 22.5214 77.9554 23.4342 78.4155 24.2984L78.3835 24.2336C78.6516 24.7251 79.1117 24.9574 79.2198 25.7675C78.8757 26.7452 78.6076 27.8794 78.4595 29.0623L78.4515 29.1379C78.0194 30.9311 77.7673 32.9998 77.7673 35.1441C77.7673 38.4983 78.3795 41.658 79.4598 44.4343L79.4198 44.3262C79.956 45.4443 81.2284 47.9289 82.9329 46.9782C84.4333 46.1681 84.1012 43.6025 84.5334 41.3447C84.6334 40.8046 84.5694 40.4481 84.7734 40.0809V40.1835C85.2416 41.4528 85.7137 42.6626 86.1418 43.9319C87.3502 46.2815 88.7866 48.2799 90.4271 49.9273L90.4791 49.9759C91.2794 50.7861 91.9156 52.1904 92.9159 52.6874V52.5523H92.8399C92.6118 52.2174 92.3597 51.9204 92.0836 51.6665L92.0676 51.6557C91.4474 50.8347 90.8713 49.9489 90.3511 49.0145L90.3191 48.9551C89.0147 46.5786 87.7743 43.8887 86.698 41.0639L86.582 40.7344C86.0338 39.3193 85.5737 37.7907 85.1335 36.3918C84.9335 35.8517 84.9335 35.0415 84.5974 34.7714C84.0052 35.668 83.473 36.6673 83.0289 37.7421L82.9969 37.8285C82.4847 39.8432 82.1486 42.1711 82.0606 44.5855V44.6449C81.9246 44.6935 81.9926 44.6449 81.9246 44.7421C80.8563 44.391 80.4881 42.8949 80.088 41.6364C79.5439 39.6596 79.2278 37.3694 79.2278 34.9875C79.2278 33.0646 79.4318 31.2066 79.8159 29.4512L79.7919 29.5916C80.028 28.6464 81.0283 25.6649 80.6282 24.7575C80.4201 23.8987 79.7599 23.4072 79.3918 22.7104C78.9557 21.8786 78.5556 20.9334 78.2235 19.9342L78.1915 19.8262C77.3912 17.3038 76.9911 14.5059 76.1228 11.9836C75.5987 10.6657 75.0465 9.53139 74.4263 8.47275L74.4543 8.52136C73.7941 7.48972 73.186 6.33925 72.6578 5.11857L72.6138 5.01055C72.4497 4.51903 72.2137 3.70344 72.4777 3.16332C72.5258 2.85005 72.7098 2.60699 72.9459 2.55838C73.386 2.07227 74.6264 2.70421 75.0585 2.97428C76.3269 3.62243 77.4192 4.384 78.4315 5.28061L78.3675 5.2266C78.8356 5.6695 79.3438 6.5283 79.944 6.74975H80.6442C81.7125 7.06842 82.9209 6.84697 83.9212 7.24126C85.7577 8.07846 87.3462 9.1263 88.8146 10.4118L88.7306 10.3416C93.1479 14.1927 96.685 19.3995 99.0777 25.5515L99.1577 25.7729C99.5579 26.81 99.7339 27.766 100.098 28.8463C100.798 31.0716 101.662 33.3239 102.375 35.4736C103.051 37.7853 103.851 39.7838 104.803 41.6256L104.755 41.5284C105.256 42.4736 107.264 42.9651 108.164 43.4566C109.113 43.9049 109.873 44.3316 110.609 44.8123L110.461 44.7259C111.609 45.6711 112.73 46.7514 113.81 47.7884C114.358 48.3015 116.027 49.4304 116.127 50.3378L116.119 50.354ZM69.2088 89.8533C69.2088 89.9344 69.2128 90.0262 69.2128 90.118C69.2128 93.1319 68.2165 95.8271 66.64 97.6419L66.628 97.6527C64.8995 99.554 62.6708 100.71 60.2421 100.71C60.054 100.71 59.866 100.704 59.6819 100.688H59.7059C56.749 100.634 54.0282 99.3379 51.7995 97.172L51.8396 97.2098L53.0239 93.9961C54.7404 95.2924 56.781 96.0972 58.9497 96.2106H58.9737C59.0817 96.2214 59.2058 96.2268 59.3338 96.2268C60.6622 96.2268 61.8986 95.6651 62.9109 94.7091L62.8909 94.7253C63.8071 93.7855 64.3913 92.3163 64.3913 90.6635C64.3913 90.6311 64.3913 90.6041 64.3913 90.5717V90.5771C64.3913 88.3518 63.243 86.4614 61.1503 84.8734C59.2098 83.4367 55.3366 80.439 55.3366 80.439C53.424 78.8402 52.1716 76.0262 52.1716 72.8178C52.1716 72.7044 52.1716 72.591 52.1757 72.4775V72.4937C52.1716 72.3911 52.1716 72.2723 52.1716 72.1535C52.1716 69.3718 53.0799 66.8764 54.5164 65.1805L54.5244 65.1696C56.0528 63.4196 58.0494 62.3556 60.2301 62.3556C60.3701 62.3556 60.5061 62.361 60.6422 62.3664H60.6222C60.6582 62.3664 60.7022 62.3664 60.7462 62.3664C63.303 62.3664 65.6837 63.398 67.6683 65.175L67.6203 65.1372L66.556 68.351C64.9915 67.4004 63.1669 66.8278 61.2464 66.8008H61.2384C61.1423 66.79 61.0343 66.7846 60.9223 66.7846C59.8019 66.7846 58.7696 67.3139 57.9614 68.1997L57.9694 68.1889C57.2132 69.0369 56.733 70.3062 56.729 71.7268C56.729 73.9413 57.8974 75.8425 60.058 77.4629C62.0226 78.9158 65.9918 81.9837 65.9918 81.9837C67.9444 83.5339 69.2368 86.3533 69.2368 89.5833C69.2368 89.6805 69.2368 89.7831 69.2328 89.8804V89.8642L69.2088 89.8533ZM77.4993 92.7214C76.4069 89.7777 75.7707 86.3101 75.7707 82.6427C75.7707 82.0648 75.7867 81.4922 75.8187 80.9305L75.8147 81.0061C75.8147 71.6043 77.9314 66.9016 82.1647 66.898C82.2687 66.8872 82.3927 66.8818 82.5208 66.8818C84.4213 66.8818 86.0898 68.2213 87.0381 70.2414L87.0501 70.2684C88.1344 73.1959 88.7706 76.6527 88.7706 80.3039C88.7706 80.8657 88.7546 81.422 88.7266 81.9729L88.7306 81.8973C88.7306 91.3747 86.614 96.117 82.3807 96.1242C82.2727 96.135 82.1486 96.1404 82.0246 96.1404C80.124 96.1404 78.4515 94.8009 77.5033 92.7808L77.4912 92.7538L77.4993 92.7214ZM93.9602 101.104L88.8787 97.7284C89.3428 97.2044 89.7589 96.6535 90.143 96.0594L90.155 96.0432C92.2077 92.3055 93.44 87.601 93.44 82.5131C93.44 81.9243 93.424 81.341 93.392 80.763L93.396 80.8387C93.396 68.4878 89.8043 62.3088 82.6208 62.3016C82.4607 62.2908 82.2727 62.2854 82.0846 62.2854C79.0157 62.2854 76.2589 64.1056 74.3823 66.9953L74.3743 67.0115C72.3297 70.7491 71.1013 75.4482 71.1013 80.5362C71.1013 81.1087 71.1173 81.6759 71.1493 82.2376L71.1453 82.162C71.1093 82.7075 71.0893 83.3448 71.0893 83.9876C71.0893 88.7083 72.1857 93.0833 74.0502 96.6751L74.0142 96.6049C75.8107 99.1867 78.3595 100.796 81.1804 100.796C81.4444 100.796 81.7045 100.78 81.9606 100.753L81.9246 100.758C81.9606 100.758 82.0086 100.758 82.0526 100.758C83.297 100.758 84.5014 100.515 85.6417 100.067L85.5537 100.1L92.1797 105.312L93.9802 101.115L93.9602 101.104ZM110.557 100.191H97.4052V62.8687H101.831V95.6057H110.557V100.191ZM48.9347 72.6558C47.7863 83.912 45.1575 94.0717 41.3124 103.173L41.4724 102.757C39.932 106.759 37.0191 109.546 33.5981 109.995L33.5581 110C32.5218 109.924 31.5575 109.59 30.6812 109.044L30.7292 109.071V105.738C31.2774 105.852 31.9096 105.917 32.5538 105.917C32.5898 105.917 32.6258 105.917 32.6658 105.917C32.7298 105.922 32.7978 105.922 32.8699 105.922C34.0262 105.922 35.0865 105.355 35.9028 104.41L35.8948 104.415C36.775 103.437 37.3392 101.979 37.3712 100.337C37.1591 97.9714 36.755 95.8109 36.1748 93.7747L36.2229 93.9583L31.1533 72.6558H35.7027L39.3398 88.584C39.988 90.831 40.3641 93.4344 40.3641 96.1512C40.3641 96.1566 40.3641 96.162 40.3641 96.162C42.2927 89.3456 43.7571 81.395 44.5013 73.1473L44.5374 72.6504L48.9347 72.6558ZM28.8487 100.191H24.2153C24.0846 90.2494 23.6351 80.3273 22.8669 70.4251H22.8268L15.7767 100.191H12.2517L5.24957 70.4251H5.20156C4.65473 80.3309 4.3293 90.253 4.22527 100.191H0C0.274749 86.9223 0.95762 74.4796 2.04861 62.8633H7.79834L14.4723 90.2963H14.5124L21.2464 62.8633H26.72C27.931 76.4637 28.6446 88.9063 28.8607 100.191H28.8487ZM82.0246 11.141C82.0166 11.141 82.0046 11.141 81.9926 11.141C81.5165 11.141 81.0563 11.222 80.6162 11.3732L80.6562 11.3624V11.4488H80.7242C81.0683 12.1402 81.4204 12.7397 81.8005 13.3015L81.7925 13.2907C82.0606 14.0144 82.2927 14.7328 82.5608 15.4512L82.6288 15.3485C83.0649 14.884 83.341 14.1711 83.341 13.3717C83.341 13.2745 83.337 13.1826 83.329 13.0854V13.0962C83.1289 12.7775 83.1009 12.4643 82.9289 12.151C82.7288 11.6973 82.3007 11.4758 82.0286 11.1194L82.0246 11.141Z" fill="black"/>
</svg>
