<svg width="105" height="82" viewBox="0 0 105 82" fill="none" xmlns="http://www.w3.org/2000/svg">
<path d="M24.7756 26.603H44.5795V29.1376H26.5909V48.2135H43.5068V50.7481H26.5909V71.6916H44.7858V74.2261H24.7756V26.603ZM46.3536 26.603H48.4578L57.7822 47.5465L67.3128 26.603L80.2761 0L58.9787 49.7476L69.9534 74.2261H67.7667L57.7822 51.9487L47.7564 74.2261H45.611L56.6682 49.7476L46.3536 26.603ZM70.7373 29.1376V26.603H93.3055V29.1376H82.9085V74.2261H81.0931V29.1376H70.7373ZM0 26.603H2.2692L33.5602 102L20.6291 74.2261L1.89788 30.2048L1.81536 74.2261H0V26.603ZM93.1226 70.9267C92.7517 70.9267 92.4736 70.464 92.4736 69.866C92.4736 69.268 92.7517 68.8052 93.1226 68.8052C93.4979 68.8052 93.7717 69.268 93.7717 69.866C93.7717 70.464 93.4979 70.9267 93.1226 70.9267ZM94.9064 68.136H95.8778C95.8911 68.9832 96.2752 69.5527 96.8404 69.5527C97.4718 69.5527 97.8294 68.9405 97.8294 67.7943V60.5329H98.8185V67.8014C98.8185 69.866 98.0767 71.0548 96.8492 71.0548C95.6968 71.0548 94.9064 69.9016 94.9064 68.136ZM100.112 68.0435H101.092C101.176 69.0188 101.768 69.6381 102.62 69.6381C103.415 69.6381 103.998 68.9761 103.998 68.0648C103.998 67.2818 103.627 66.8119 102.783 66.4915L101.962 66.1712C100.81 65.7369 100.284 64.8399 100.284 63.3307C100.284 61.5011 101.212 60.2838 102.602 60.2838C103.896 60.2838 104.841 61.5011 104.898 63.231H103.936C103.843 62.2842 103.331 61.6933 102.589 61.6933C101.808 61.6933 101.287 62.2985 101.287 63.2239C101.287 63.9572 101.622 64.3772 102.452 64.6904L103.154 64.9681C104.461 65.4593 105 66.3136 105 67.8584C105 69.8232 104.055 71.0548 102.545 71.0548C101.132 71.0548 100.183 69.8802 100.112 68.0435Z" fill="black"/>
</svg>
