<svg width="105" height="105" viewBox="0 0 105 105" fill="none" xmlns="http://www.w3.org/2000/svg">
<g clip-path="url(#clip0_412_237)">
<path d="M0 52.5V105H52.5H105V52.5V0H52.5H0V52.5Z" fill="#007ACC"/>
<path d="M23.2194 52.8484L23.186 57.1484H30.0194L36.8527 57.1484V76.565V95.9817H41.686H46.5194V76.565L46.5194 57.1484H53.3527H60.186V52.9317C60.186 50.5984 60.136 48.6484 60.0694 48.5984C60.0194 48.5317 51.7027 48.4984 41.6194 48.515L23.2694 48.565L23.2194 52.8484Z" fill="white"/>
<path d="M84.7246 48.4428C87.3913 49.1094 89.4246 50.2928 91.2913 52.2261C92.258 53.2594 93.6913 55.1428 93.808 55.5928C93.8413 55.7261 89.2746 58.7928 86.508 60.5094C86.408 60.5761 86.008 60.1428 85.558 59.4761C84.208 57.5094 82.7913 56.6594 80.6246 56.5094C77.4413 56.2928 75.3913 57.9594 75.408 60.7428C75.408 61.5594 75.5246 62.0428 75.858 62.7094C76.558 64.1594 77.858 65.0261 81.9413 66.7928C89.458 70.0261 92.6746 72.1594 94.6746 75.1928C96.908 78.5761 97.408 83.9761 95.8913 87.9928C94.2246 92.3594 90.0913 95.3261 84.2746 96.3094C82.4746 96.6261 78.208 96.5761 76.2746 96.2261C72.058 95.4761 68.058 93.3928 65.5913 90.6594C64.6246 89.5928 62.7413 86.8094 62.858 86.6094C62.908 86.5428 63.3413 86.2761 63.8246 85.9928C64.2913 85.7261 66.058 84.7094 67.7246 83.7428L70.7413 81.9928L71.3746 82.9261C72.258 84.2761 74.1913 86.1261 75.358 86.7428C78.708 88.5094 83.308 88.2594 85.5746 86.2261C86.5413 85.3428 86.9413 84.4261 86.9413 83.0761C86.9413 81.8594 86.7913 81.3261 86.158 80.4094C85.3413 79.2428 83.6746 78.2594 78.9413 76.2094C73.5246 73.8761 71.1913 72.4261 69.058 70.1261C67.8246 68.7928 66.658 66.6594 66.1746 64.8761C65.7746 63.3928 65.6746 59.6761 65.9913 58.1761C67.108 52.9428 71.058 49.2928 76.758 48.2094C78.608 47.8594 82.908 47.9928 84.7246 48.4428Z" fill="white"/>
</g>
<defs>
<clipPath id="clip0_412_237">
<rect width="105" height="105" fill="white"/>
</clipPath>
</defs>
</svg>
